{
  "accessors": [
    {
      "bufferView": 0,
      "componentType": 5125,
      "count": 14886,
      "type": "SCALAR"
    },
    {
      "bufferView": 1,
      "componentType": 5126,
      "count": 4151,
      "max": [
        0.28238344033829654,
        0.4803777336857255,
        0.009999999747378752
      ],
      "min": [
        -0.28238344033829677,
        -0.4803777336857255,
        -0.009999999747378752
      ],
      "type": "VEC3"
    },
    {
      "bufferView": 2,
      "componentType": 5126,
      "count": 4151,
      "max": [
        0.9999998196887817,
        0.9999982835710811,
        1.0
      ],
      "min": [
        -0.999999872718474,
        -0.9999962051541029,
        -1.0
      ],
      "type": "VEC3"
    },
    {
      "bufferView": 3,
      "componentType": 5126,
      "count": 4151,
      "max": [
        1.0,
        0.5011873587803733
      ],
      "min": [
        0.0,
        0.0
      ],
      "type": "VEC2"
    }
  ],
  "asset": {
    "generator": "Adobe Illustrator",
    "version": "2.0"
  },
  "bufferViews": [
    {
      "buffer": 0,
      "byteLength": 59544,
      "target": 34963
    },
    {
      "buffer": 0,
      "byteLength": 49812,
      "byteOffset": 59544,
      "target": 34962
    },
    {
      "buffer": 0,
      "byteLength": 49812,
      "byteOffset": 109356,
      "target": 34962
    },
    {
      "buffer": 0,
      "byteLength": 33208,
      "byteOffset": 159168,
      "target": 34962
    }
  ],
  "buffers": [
    {
      "byteLength": 192376,
      "uri": "data:application/octet-stream;base64,"
    }
  ],
  "materials": [
    {
      "doubleSided": true,
      "pbrMetallicRoughness": {
        "baseColorFactor": [
          0.34375,
          0.73046875,
          0.64453125,
          1.0
        ],
        "metallicFactor": 0.0,
        "roughnessFactor": 0.4000000059604645
      }
    }
  ],
  "meshes": [
    {
      "primitives": [
        {
          "attributes": {
            "NORMAL": 2,
            "POSITION": 1,
            "TEXCOORD_0": 3
          },
          "indices": 0,
          "material": 0,
          "mode": 4
        }
      ]
    }
  ],
  "nodes": [
    {
      "mesh": 0
    }
  ],
  "scenes": [
    {
      "nodes": [
        0
      ]
    }
  ]
}
