{
  "accessors": [
    {
      "bufferView": 0,
      "componentType": 5125,
      "count": 19404,
      "type": "SCALAR"
    },
    {
      "bufferView": 1,
      "componentType": 5126,
      "count": 5408,
      "max": [
        0.4732913022898934,
        0.6768865048153421,
        0.009999999747378753
      ],
      "min": [
        -0.47329130228989347,
        -0.6768865048153422,
        -0.009999999747378753
      ],
      "type": "VEC3"
    },
    {
      "bufferView": 2,
      "componentType": 5126,
      "count": 5408,
      "max": [
        0.9999999894456749,
        0.9999996558330694,
        1.0
      ],
      "min": [
        -0.9999998700912387,
        -0.9999886291436005,
        -1.0
      ],
      "type": "VEC3"
    },
    {
      "bufferView": 3,
      "componentType": 5126,
      "count": 5408,
      "max": [
        1.0,
        0.7682698867849002
      ],
      "min": [
        0.0,
        0.0
      ],
      "type": "VEC2"
    }
  ],
  "asset": {
    "generator": "Adobe Illustrator",
    "version": "2.0"
  },
  "bufferViews": [
    {
      "buffer": 0,
      "byteLength": 77616,
      "target": 34963
    },
    {
      "buffer": 0,
      "byteLength": 64896,
      "byteOffset": 77616,
      "target": 34962
    },
    {
      "buffer": 0,
      "byteLength": 64896,
      "byteOffset": 142512,
      "target": 34962
    },
    {
      "buffer": 0,
      "byteLength": 43264,
      "byteOffset": 207408,
      "target": 34962
    }
  ],
  "buffers": [
    {
      "byteLength": 250672,
      "uri": "data:application/octet-stream;base64,"
    }
  ],
  "materials": [
    {
      "doubleSided": true,
      "pbrMetallicRoughness": {
        "baseColorFactor": [
          0.34375,
          0.73046875,
          0.64453125,
          1.0
        ],
        "metallicFactor": 0.0,
        "roughnessFactor": 0.4000000059604645
      }
    }
  ],
  "meshes": [
    {
      "primitives": [
        {
          "attributes": {
            "NORMAL": 2,
            "POSITION": 1,
            "TEXCOORD_0": 3
          },
          "indices": 0,
          "material": 0,
          "mode": 4
        }
      ]
    }
  ],
  "nodes": [
    {
      "mesh": 0
    }
  ],
  "scenes": [
    {
      "nodes": [
        0
      ]
    }
  ]
}
